<svg width="24" height="24" viewBox="0 0 24 24" fill="none" xmlns="http://www.w3.org/2000/svg">
<path d="M11.6541 0C5.21627 0 0 5.21627 0 11.6541C0 18.092 5.21627 23.3083 11.6541 23.3083C18.092 23.3083 23.3083 18.092 23.3083 11.6541C23.3083 5.21627 18.092 0 11.6541 0ZM7.23181 16.7471C7.16029 16.8691 7.05792 16.9701 6.93499 17.0399C6.81207 17.1098 6.67291 17.1461 6.53152 17.1451C6.38741 17.1464 6.24581 17.1074 6.12258 17.0327C6.03083 16.9796 5.95049 16.9088 5.88616 16.8245C5.82182 16.7402 5.77477 16.644 5.7477 16.5415C5.72063 16.439 5.71408 16.3321 5.72841 16.227C5.74274 16.122 5.77769 16.0208 5.83123 15.9292L6.62673 14.6067C6.66693 14.5384 6.72428 14.4819 6.7931 14.4426C6.86191 14.4034 6.9398 14.3828 7.01902 14.383H7.1366C7.71358 14.383 8.11731 14.73 8.2349 15.0661L7.23181 16.7471ZM13.9668 14.1457L8.75725 14.1515H5.29483C5.18589 14.1519 5.078 14.1302 4.97769 14.0877C4.87738 14.0453 4.78675 13.9828 4.71129 13.9043C4.63583 13.8257 4.57712 13.7326 4.53872 13.6307C4.50031 13.5287 4.48302 13.42 4.48788 13.3112C4.50453 12.8742 4.88589 12.5433 5.32032 12.5433H7.83012L10.8056 7.47842L9.84202 5.83695C9.62507 5.46288 9.72132 4.96966 10.0933 4.73449C10.185 4.67518 10.2878 4.63503 10.3954 4.61645C10.503 4.59786 10.6133 4.60124 10.7196 4.62636C10.8259 4.65149 10.926 4.69785 11.0139 4.76266C11.1018 4.82746 11.1757 4.90938 11.2312 5.00347L11.7462 5.88326H11.7519L12.2675 5.00347C12.323 4.90986 12.3968 4.82839 12.4845 4.76391C12.5722 4.69943 12.6719 4.65326 12.7778 4.62816C12.8837 4.60306 12.9936 4.59953 13.1009 4.6178C13.2081 4.63607 13.3106 4.67576 13.4023 4.73449C13.7722 4.96966 13.8674 5.46288 13.6489 5.83851L12.6853 7.47998L11.7488 9.0767L9.71507 12.5448V12.5506H12.7124C13.088 12.5506 13.5589 12.7524 13.7493 13.0771L13.7659 13.1109C13.934 13.3965 14.0292 13.5927 14.0292 13.8783C14.0264 13.9711 14.0058 14.0624 13.9683 14.1473L13.9668 14.1457ZM18.0119 14.1515H16.6014V14.1572L17.6326 15.911C17.7435 16.0957 17.7775 16.3166 17.7271 16.5261C17.6768 16.7356 17.5463 16.917 17.3636 17.0312C17.237 17.1084 17.0916 17.1492 16.9432 17.1493C16.8022 17.1492 16.6636 17.1127 16.5409 17.0432C16.4182 16.9737 16.3156 16.8737 16.243 16.7528L14.7191 14.1587L13.7722 12.5459L12.5506 10.4575C12.3736 10.1593 12.2775 9.82016 12.2715 9.47347C12.2656 9.12678 12.3501 8.78454 12.5167 8.48046C12.7582 8.05436 12.9429 7.9425 12.9429 7.9425L15.6602 12.5386H17.9968C18.4338 12.5386 18.8089 12.8747 18.8292 13.306C18.8334 13.4157 18.8154 13.525 18.7763 13.6276C18.7372 13.7301 18.6777 13.8236 18.6015 13.9026C18.5253 13.9816 18.434 14.0443 18.3329 14.0871C18.2318 14.1298 18.1232 14.1517 18.0134 14.1515H18.0119Z" fill="#0030AD"/>
</svg>
