<svg width="34" height="34" viewBox="0 0 34 34" fill="none" xmlns="http://www.w3.org/2000/svg">
<path d="M12.7493 12.75L19.1243 17L25.4994 12.75M4.24935 19.125H7.08268M1.41602 14.875H7.08268" stroke="#0030AD" stroke-width="1.5" stroke-linecap="round" stroke-linejoin="round"/>
<path d="M7.08203 10.6252V9.91683C7.08203 9.16538 7.38054 8.44471 7.9119 7.91336C8.44325 7.38201 9.16392 7.0835 9.91536 7.0835H28.332C29.0835 7.0835 29.8041 7.38201 30.3355 7.91336C30.8669 8.44471 31.1654 9.16538 31.1654 9.91683V24.0835C31.1654 24.8349 30.8669 25.5556 30.3355 26.087C29.8041 26.6183 29.0835 26.9168 28.332 26.9168H9.91536C9.16392 26.9168 8.44325 26.6183 7.9119 26.087C7.38054 25.5556 7.08203 24.8349 7.08203 24.0835V23.3752" stroke="#0030AD" stroke-width="1.5" stroke-linecap="round"/>
</svg>
