<svg width="50" height="50" viewBox="0 0 50 50" fill="none" xmlns="http://www.w3.org/2000/svg">
<path d="M4.6875 5.80937V44.1883C4.68776 44.2715 4.71259 44.3529 4.75889 44.4221C4.80519 44.4913 4.87089 44.5453 4.94775 44.5773C5.02462 44.6093 5.10922 44.6179 5.19096 44.6021C5.2727 44.5862 5.34793 44.5465 5.40723 44.4881L25.3906 24.9998L5.40723 5.50957C5.34793 5.45111 5.2727 5.41146 5.19096 5.39558C5.10922 5.37971 5.02462 5.38832 4.94775 5.42034C4.87089 5.45236 4.80519 5.50636 4.75889 5.57556C4.71259 5.64477 4.68776 5.72611 4.6875 5.80937ZM33.7695 16.992L8.71289 3.1873L8.69727 3.17851C8.26562 2.94414 7.85547 3.52812 8.20898 3.86797L27.8506 22.6492L33.7695 16.992ZM8.21094 46.1316C7.85547 46.4715 8.26563 47.0555 8.69922 46.8211L8.71484 46.8123L33.7695 33.0076L27.8506 27.3484L8.21094 46.1316ZM43.8848 22.5584L36.8877 18.7049L30.3086 24.9998L36.8877 31.2918L43.8848 27.4412C45.7881 26.3894 45.7881 23.6102 43.8848 22.5584Z" fill="white"/>
</svg>
