<svg width="24" height="24" viewBox="0 0 24 24" fill="none" xmlns="http://www.w3.org/2000/svg">
<path d="M2.18555 2.70813V20.5991C2.18567 20.6379 2.19724 20.6758 2.21883 20.708C2.24041 20.7403 2.27104 20.7655 2.30687 20.7804C2.3427 20.7953 2.38214 20.7993 2.42024 20.7919C2.45835 20.7845 2.49342 20.7661 2.52106 20.7388L11.8366 11.654L2.52106 2.56837C2.49342 2.54112 2.45835 2.52264 2.42024 2.51524C2.38214 2.50784 2.3427 2.51185 2.30687 2.52678C2.27104 2.5417 2.24041 2.56688 2.21883 2.59914C2.19724 2.6314 2.18567 2.66932 2.18555 2.70813ZM15.7426 7.92108L4.06204 1.48581L4.05476 1.48172C3.85354 1.37246 3.66234 1.64469 3.82714 1.80312L12.9834 10.5583L15.7426 7.92108ZM3.82805 21.505C3.66234 21.6634 3.85355 21.9356 4.05567 21.8264L4.06296 21.8223L15.7426 15.387L12.9834 12.7489L3.82805 21.505ZM20.458 10.5159L17.1962 8.71957L14.1292 11.654L17.1962 14.5872L20.458 12.7921C21.3452 12.3019 21.3452 11.0062 20.458 10.5159Z" fill="#0030AD"/>
</svg>
