<svg width="50" height="50" viewBox="0 0 50 50" fill="none" xmlns="http://www.w3.org/2000/svg">
<path d="M25 0C11.1897 0 0 11.1897 0 25C0 38.8103 11.1897 50 25 50C38.8103 50 50 38.8103 50 25C50 11.1897 38.8103 0 25 0ZM15.5134 35.9252C15.36 36.1869 15.1404 36.4035 14.8767 36.5534C14.613 36.7033 14.3145 36.7811 14.0112 36.779C13.702 36.7817 13.3983 36.6982 13.1339 36.5379C12.9371 36.4239 12.7648 36.2721 12.6268 36.0913C12.4888 35.9104 12.3878 35.7041 12.3297 35.4842C12.2717 35.2642 12.2576 35.035 12.2884 34.8096C12.3191 34.5842 12.3941 34.3671 12.5089 34.1708L14.2154 31.3337C14.3016 31.1873 14.4247 31.0659 14.5723 30.9818C14.7199 30.8976 14.887 30.8535 15.0569 30.8538H15.3092C16.5469 30.8538 17.4129 31.5982 17.6652 32.3192L15.5134 35.9252ZM29.9609 30.3449L18.7857 30.3571H11.3583C11.1246 30.3581 10.8931 30.3116 10.6779 30.2205C10.4628 30.1293 10.2683 29.9954 10.1065 29.8269C9.9446 29.6583 9.81866 29.4587 9.73628 29.24C9.6539 29.0213 9.6168 28.7881 9.62723 28.5547C9.66295 27.6172 10.481 26.9074 11.4129 26.9074H16.7969L23.1797 16.0424L21.1127 12.5212C20.6473 11.7188 20.8538 10.6607 21.6518 10.1562C21.8485 10.029 22.0689 9.94288 22.2998 9.90302C22.5307 9.86316 22.7672 9.87039 22.9952 9.92429C23.2232 9.97819 23.438 10.0776 23.6266 10.2167C23.8152 10.3557 23.9737 10.5314 24.0926 10.7333L25.1975 12.6205H25.2098L26.3158 10.7333C26.4349 10.5325 26.5932 10.3577 26.7813 10.2194C26.9693 10.081 27.1833 9.98199 27.4105 9.92814C27.6376 9.8743 27.8733 9.86674 28.1034 9.90593C28.3336 9.94512 28.5535 10.0303 28.75 10.1562C29.5435 10.6607 29.7478 11.7188 29.279 12.5246L27.2121 16.0458L25.2031 19.471L20.8404 26.9107V26.923H27.2701C28.0759 26.923 29.0859 27.356 29.4944 28.0525L29.5301 28.125C29.8906 28.7377 30.0949 29.1585 30.0949 29.7712C30.089 29.9702 30.0446 30.1661 29.9643 30.3482L29.9609 30.3449ZM38.6384 30.3571H35.6127V30.3694L37.8248 34.1317C38.0627 34.5279 38.1355 35.0017 38.0276 35.4511C37.9197 35.9005 37.6396 36.2896 37.2478 36.5346C36.9761 36.7002 36.6641 36.7879 36.346 36.7879C36.0435 36.7878 35.7462 36.7094 35.483 36.5604C35.2197 36.4114 34.9995 36.1968 34.8438 35.9375L31.5748 30.3728L29.5435 26.9129L26.923 22.433C26.5434 21.7934 26.3371 21.0658 26.3244 20.3221C26.3117 19.5784 26.493 18.8442 26.8504 18.192C27.3683 17.2779 27.7645 17.0379 27.7645 17.0379L33.5938 26.8973H38.606C39.5435 26.8973 40.3482 27.6183 40.3917 28.5435C40.4008 28.7788 40.3622 29.0134 40.2782 29.2333C40.1943 29.4532 40.0667 29.6539 39.9033 29.8233C39.7398 29.9927 39.5438 30.1273 39.327 30.2191C39.1102 30.3108 38.8771 30.3578 38.6417 30.3571H38.6384Z" fill="white"/>
</svg>
