<svg width="54" height="53" viewBox="0 0 54 53" fill="none" xmlns="http://www.w3.org/2000/svg">
<path d="M21.7839 30.1054C21.8129 30.2102 21.8623 30.3084 21.9292 30.3941C21.9961 30.4799 22.0793 30.5516 22.1739 30.6052C22.2686 30.6589 22.3729 30.6933 22.4808 30.7067C22.5888 30.72 22.6983 30.7119 22.8031 30.6829C22.908 30.6539 23.0061 30.6045 23.0919 30.5376C23.1776 30.4707 23.2494 30.3876 23.303 30.2929C23.3566 30.1983 23.3911 30.094 23.4044 29.986C23.4177 29.8781 23.4097 29.7686 23.3807 29.6637L21.7839 30.1054ZM17.0291 18.4668C16.9239 18.4361 16.8136 18.4265 16.7046 18.4388C16.5956 18.451 16.4902 18.4847 16.3943 18.538C16.2985 18.5913 16.2142 18.6631 16.1464 18.7493C16.0785 18.8354 16.0284 18.9342 15.9991 19.0398C15.9697 19.1454 15.9615 19.2559 15.9752 19.3647C15.9888 19.4735 16.0239 19.5785 16.0784 19.6736C16.1329 19.7687 16.2058 19.8521 16.2928 19.9188C16.3798 19.9856 16.4792 20.0344 16.5852 20.0624L17.0291 18.4668ZM35.7878 30.6134C35.8956 30.5884 35.9974 30.5421 36.087 30.4772C36.1767 30.4123 36.2524 30.33 36.3097 30.2354C36.367 30.1407 36.4048 30.0355 36.4207 29.9259C36.4367 29.8164 36.4306 29.7048 36.4027 29.5977C36.3747 29.4906 36.3257 29.3902 36.2583 29.3023C36.1909 29.2145 36.1066 29.1411 36.0104 29.0864C35.9142 29.0317 35.8079 28.9969 35.698 28.984C35.5881 28.971 35.4767 28.9803 35.3704 29.0111L35.7878 30.6134ZM24.7554 32.6385C25.0977 33.8753 24.3469 35.1816 23.0174 35.5272L23.4337 37.1294C25.6167 36.563 26.9506 34.3666 26.3521 32.1968L24.7554 32.6385ZM23.0174 35.5272C21.679 35.875 20.3363 35.0976 19.9918 33.8499L18.3951 34.2915C18.9913 36.4503 21.2594 37.6948 23.4337 37.1294L23.0174 35.5272ZM19.9918 33.8499C19.6495 32.6131 20.4003 31.3068 21.7298 30.9612L21.3135 29.3601C19.1305 29.9265 17.7955 32.1217 18.3951 34.2915L19.9918 33.8499ZM21.7298 30.9612C23.0682 30.6134 24.4109 31.3907 24.7554 32.6385L26.3521 32.1968C25.7559 30.038 23.4878 28.7936 21.3135 29.3589L21.7298 30.9612ZM23.3807 29.6637L21.0044 21.0618L19.4076 21.5034L21.7839 30.1054L23.3807 29.6637ZM18.9107 18.988L17.0291 18.4668L16.5852 20.0624L18.4679 20.5847L18.9107 18.988ZM21.0044 21.0618C20.8642 20.5647 20.5978 20.1124 20.2308 19.749C19.8639 19.3855 19.4091 19.1234 18.9107 18.988L18.4701 20.5847C18.9394 20.715 19.2884 21.0717 19.4076 21.5034L21.0044 21.0618ZM25.7636 33.2193L35.7878 30.6134L35.3715 29.0111L25.3462 31.6171L25.7636 33.2193Z" fill="black"/>
<path d="M24.064 22.8895C23.5284 20.9516 23.2612 19.9821 23.7162 19.2191C24.17 18.4549 25.1693 18.1954 27.168 17.6753L29.2881 17.1254C31.2868 16.6064 32.2861 16.3459 33.0734 16.7864C33.8607 17.2281 34.1291 18.1965 34.6635 20.1356L35.2322 22.1916C35.7677 24.1296 36.0361 25.0991 35.5811 25.8632C35.1262 26.6262 34.1269 26.8868 32.1282 27.4058L30.0081 27.9568C28.0094 28.4758 27.0101 28.7353 26.2228 28.2947C25.4354 27.853 25.1682 26.8846 24.6327 24.9467L24.064 22.8895Z" stroke="black" stroke-width="1.24226"/>
</svg>
