<svg width="32" height="32" viewBox="0 0 32 32" fill="none" xmlns="http://www.w3.org/2000/svg">
<path d="M24.052 18.0666C23.492 18.6133 23.172 19.3999 23.252 20.2399C23.372 21.6799 24.692 22.7333 26.132 22.7333H28.6654V24.3199C28.6654 27.0799 26.412 29.3333 23.652 29.3333H8.34536C5.58536 29.3333 3.33203 27.0799 3.33203 24.3199V15.3466C3.33203 12.5866 5.58536 10.3333 8.34536 10.3333H23.652C26.412 10.3333 28.6654 12.5866 28.6654 15.3466V17.2666H25.972C25.2254 17.2666 24.5454 17.5599 24.052 18.0666Z" stroke="white" stroke-width="2.57071" stroke-linecap="round" stroke-linejoin="round"/>
<path d="M3.33203 16.5464V10.4531C3.33203 8.86642 4.30536 7.45308 5.78537 6.89308L16.372 2.89308C16.7556 2.74853 17.1686 2.69922 17.5754 2.74939C17.9822 2.79955 18.3708 2.94769 18.7078 3.18109C19.0448 3.41448 19.3201 3.72617 19.5101 4.08938C19.7001 4.4526 19.7991 4.8565 19.7987 5.26642V10.3331M9.33203 15.9998H18.6654M30.0774 18.6264V21.3731C30.0774 22.1064 29.4907 22.7064 28.744 22.7331H26.1307C24.6907 22.7331 23.3707 21.6798 23.2507 20.2398C23.1707 19.3998 23.4907 18.6131 24.0507 18.0664C24.544 17.5598 25.224 17.2664 25.9707 17.2664H28.744C29.4907 17.2931 30.0774 17.8931 30.0774 18.6264Z" stroke="white" stroke-width="2.57071" stroke-linecap="round" stroke-linejoin="round"/>
</svg>
