<svg width="32" height="32" viewBox="0 0 32 32" fill="none" xmlns="http://www.w3.org/2000/svg">
<path d="M22.0005 9H26.0965C26.3442 9.00024 26.583 9.09244 26.7667 9.25871C26.9503 9.42499 27.0657 9.65351 27.0905 9.9L27.7005 16H25.6885L25.1885 11H22.0005V14C22.0005 14.2652 21.8951 14.5196 21.7076 14.7071C21.5201 14.8946 21.2657 15 21.0005 15C20.7353 15 20.4809 14.8946 20.2934 14.7071C20.1058 14.5196 20.0005 14.2652 20.0005 14V11H12.0005V14C12.0005 14.2652 11.8951 14.5196 11.7076 14.7071C11.5201 14.8946 11.2657 15 11.0005 15C10.7353 15 10.4809 14.8946 10.2934 14.7071C10.1058 14.5196 10.0005 14.2652 10.0005 14V11H6.81048L5.21048 27H16.0005V29H4.10448C3.96481 28.9999 3.82671 28.9705 3.6991 28.9137C3.57148 28.8569 3.45716 28.7741 3.36352 28.6705C3.26987 28.5668 3.19898 28.4447 3.1554 28.312C3.11181 28.1793 3.09651 28.039 3.11048 27.9L4.91048 9.9C4.93525 9.65351 5.05064 9.42499 5.23428 9.25871C5.41792 9.09244 5.65675 9.00024 5.90448 9H10.0005V8.302C10.0005 4.834 12.6725 2 16.0005 2C19.3285 2 22.0005 4.834 22.0005 8.302V9.002V9ZM20.0005 9V8.302C20.0005 5.914 18.1965 4 16.0005 4C13.8045 4 12.0005 5.914 12.0005 8.302V9.002H20.0005V9ZM26.2945 24.12L24.0005 21.828V29C24.0005 29.2652 23.8951 29.5196 23.7076 29.7071C23.5201 29.8946 23.2657 30 23.0005 30C22.7353 30 22.4809 29.8946 22.2934 29.7071C22.1058 29.5196 22.0005 29.2652 22.0005 29V21.828L19.7085 24.12C19.6162 24.2155 19.5059 24.2917 19.3839 24.3441C19.2619 24.3965 19.1307 24.4241 18.9979 24.4253C18.8651 24.4264 18.7334 24.4011 18.6105 24.3508C18.4876 24.3005 18.376 24.2263 18.2821 24.1324C18.1882 24.0385 18.1139 23.9268 18.0637 23.804C18.0134 23.6811 17.9881 23.5494 17.9892 23.4166C17.9904 23.2838 18.018 23.1526 18.0704 23.0306C18.1228 22.9086 18.199 22.7982 18.2945 22.706L22.2945 18.706C22.482 18.5185 22.7363 18.4132 23.0015 18.4132C23.2666 18.4132 23.521 18.5185 23.7085 18.706L27.7085 22.706C27.804 22.7982 27.8802 22.9086 27.9326 23.0306C27.985 23.1526 28.0126 23.2838 28.0137 23.4166C28.0149 23.5494 27.9896 23.6811 27.9393 23.804C27.889 23.9268 27.8148 24.0385 27.7209 24.1324C27.627 24.2263 27.5153 24.3005 27.3924 24.3508C27.2695 24.4011 27.1379 24.4264 27.0051 24.4253C26.8723 24.4241 26.7411 24.3965 26.6191 24.3441C26.4971 24.2917 26.3867 24.2155 26.2945 24.12Z" fill="#0030AD"/>
</svg>
