<svg width="54" height="54" viewBox="0 0 54 54" fill="none" xmlns="http://www.w3.org/2000/svg">
<path fill-rule="evenodd" clip-rule="evenodd" d="M34.4751 18.6465C35.32 18.6464 36.1331 18.9693 36.7478 19.549C37.3626 20.1286 37.7327 20.9213 37.7822 21.7648L37.7877 21.9592V33.0015C37.7878 33.8465 37.465 34.6595 36.8853 35.2743C36.3056 35.8891 35.5129 36.2591 34.6694 36.3087L34.4751 36.3142H19.0158C18.1708 36.3142 17.3578 35.9914 16.743 35.4117C16.1282 34.832 15.7582 34.0394 15.7086 33.1958L15.7031 33.0015V21.9592C15.7031 21.1142 16.0259 20.3012 16.6056 19.6864C17.1853 19.0716 17.978 18.7016 18.8215 18.652L19.0158 18.6465H34.4751ZM35.5793 25.2719H17.9116V33.0015C17.9116 33.272 18.0109 33.533 18.1906 33.7351C18.3704 33.9372 18.618 34.0663 18.8866 34.098L19.0158 34.1057H34.4751C34.7455 34.1057 35.0066 34.0064 35.2087 33.8267C35.4108 33.6469 35.5399 33.3993 35.5716 33.1307L35.5793 33.0015V25.2719ZM23.7563 26.8885C23.955 26.6904 24.2216 26.5754 24.5021 26.5669C24.7825 26.5583 25.0556 26.6568 25.2661 26.8424C25.4765 27.0279 25.6084 27.2866 25.635 27.5659C25.6616 27.8452 25.5809 28.1241 25.4093 28.3461L25.3177 28.451L25.1841 28.5846H30.0581C30.3396 28.5849 30.6103 28.6926 30.8149 28.8859C31.0196 29.0791 31.1427 29.3431 31.1592 29.6241C31.1757 29.905 31.0843 30.1817 30.9037 30.3975C30.723 30.6134 30.4668 30.7521 30.1873 30.7853L30.0581 30.793H25.1841L25.3166 30.9266C25.5167 31.1249 25.6335 31.3922 25.6431 31.6737C25.6526 31.9553 25.5542 32.2298 25.3679 32.4412C25.1817 32.6525 24.9217 32.7847 24.6412 32.8107C24.3607 32.8366 24.0808 32.7544 23.859 32.5808L23.7563 32.488L21.7366 30.4695C21.5465 30.2793 21.4323 30.0264 21.4154 29.758C21.3986 29.4897 21.4802 29.2244 21.645 29.0119L21.7366 28.9081L23.7563 26.8885ZM34.4751 20.8549H19.0158C18.723 20.8549 18.4421 20.9713 18.235 21.1784C18.0279 21.3855 17.9116 21.6663 17.9116 21.9592V23.0634H35.5793V21.9592C35.5793 21.6663 35.4629 21.3855 35.2559 21.1784C35.0488 20.9713 34.7679 20.8549 34.4751 20.8549Z" fill="black"/>
</svg>
