<svg width="44" height="44" viewBox="0 0 44 44" fill="none" xmlns="http://www.w3.org/2000/svg">
<path d="M3.66602 22.0003H9.16602M34.8327 22.0003H40.3327M21.9993 3.66699V9.16699M21.9993 34.8337V40.3337" stroke="#DE801C" stroke-width="2" stroke-linecap="round" stroke-linejoin="round"/>
<path d="M21.9993 34.8337C29.087 34.8337 34.8327 29.088 34.8327 22.0003C34.8327 14.9127 29.087 9.16699 21.9993 9.16699C14.9117 9.16699 9.16602 14.9127 9.16602 22.0003C9.16602 29.088 14.9117 34.8337 21.9993 34.8337Z" stroke="#DE801C" stroke-width="2" stroke-linecap="round" stroke-linejoin="round"/>
<path d="M22 27.5C25.0376 27.5 27.5 25.0376 27.5 22C27.5 18.9624 25.0376 16.5 22 16.5C18.9624 16.5 16.5 18.9624 16.5 22C16.5 25.0376 18.9624 27.5 22 27.5Z" stroke="#DE801C" stroke-width="2" stroke-linecap="round" stroke-linejoin="round"/>
</svg>
