<svg width="32" height="33" viewBox="0 0 32 33" fill="none" xmlns="http://www.w3.org/2000/svg">
<g opacity="0.7">
<path d="M24 11.5H8C6.89543 11.5 6 12.3954 6 13.5V23.5C6 24.6046 6.89543 25.5 8 25.5H24C25.1046 25.5 26 24.6046 26 23.5V13.5C26 12.3954 25.1046 11.5 24 11.5Z" stroke="#757575" stroke-width="1.7138" stroke-linecap="round" stroke-linejoin="round"/>
<path d="M20 25.5V9.5C20 8.96957 19.7893 8.46086 19.4142 8.08579C19.0391 7.71071 18.5304 7.5 18 7.5H14C13.4696 7.5 12.9609 7.71071 12.5858 8.08579C12.2107 8.46086 12 8.96957 12 9.5V25.5" stroke="#757575" stroke-width="1.7138" stroke-linecap="round" stroke-linejoin="round"/>
</g>
</svg>
